<svg xmlns="http://www.w3.org/2000/svg"  viewBox="0 0 48 48" width="48px" height="48px"><path fill="#9e9f9e" d="M32.5,9.5c-3.177,0-6.108,1.039-8.5,2.778C21.608,10.539,18.677,9.5,15.5,9.5C7.505,9.5,1,16.005,1,24s6.505,14.5,14.5,14.5	c3.177,0,6.108-1.039,8.5-2.778c2.392,1.739,5.323,2.778,8.5,2.778C40.495,38.5,47,31.995,47,24S40.495,9.5,32.5,9.5z M24,31.719	c-1.857-2.043-3-4.747-3-7.719s1.143-5.676,3-7.719c1.857,2.043,3,4.747,3,7.719S25.857,29.676,24,31.719z M32.5,35.5	c-2.291,0-4.422-0.681-6.217-1.84C28.586,31.092,30,27.712,30,24s-1.414-7.092-3.717-9.66c1.795-1.159,3.926-1.84,6.217-1.84	C38.841,12.5,44,17.659,44,24S38.841,35.5,32.5,35.5z"/></svg>