<?xml version="1.0" encoding="utf-8"?>
<svg width="35.9375px" height="11.6875px" viewBox="0 0 35.9375 11.6875" version="1.1" xmlns:xlink="http://www.w3.org/1999/xlink" xmlns="http://www.w3.org/2000/svg">
  <path d="M23.4375 0C20.3359 0 18.75 1.52734 18.75 3.46875C18.75 6.98047 22.8125 6.50781 22.8125 8.3125C22.8125 8.61719 22.5781 9.34375 20.875 9.34375C19.168 9.34375 18.0625 8.6875 18.0625 8.6875L17.5313 11.0625C17.5313 11.0625 18.6367 11.6875 20.75 11.6875C22.8633 11.6875 25.7813 10.0703 25.7813 7.71875C25.7813 4.89063 21.7188 4.66797 21.7188 3.40625C21.7188 2.76172 22.2188 2.28125 23.6875 2.28125C24.6406 2.28125 25.7188 3 25.7188 3L26.2188 0.5625C26.2188 0.5625 24.8008 0 23.4375 0L23.4375 0ZM10.2188 0.21875L7.53125 8.15625C7.53125 8.15625 7.34766 7.48047 7.28125 7.0625C5.74609 3.61719 3.25 2.34375 3.25 2.34375L5.625 11.3438L8.875 11.3438L13.375 0.21875L10.2188 0.21875ZM14.5313 0.21875L12.7813 11.3438L15.75 11.3438L17.5313 0.21875L14.5313 0.21875ZM30.5625 0.21875L25.7188 11.3438L28.6563 11.3438L29.25 9.75L32.9375 9.75L33.25 11.3438L35.9375 11.3438L33.6563 0.21875L30.5625 0.21875ZM0 0.25C0 0.25 5.80469 2.04688 7.15625 6.40625L6.15625 1.34375C6.15625 1.34375 5.72656 0.25 4.5625 0.25L0 0.25ZM31.6875 3.4375L32.5 7.625L30.0625 7.625L31.6875 3.4375Z" id="Forma" fill="#9E9F9E" fill-rule="evenodd" stroke="none" />
</svg>